<svg aria-hidden="true" style="position: absolute; width: 0; height: 0; overflow: hidden;" version="1.1" xmlns="http://www.w3.org/2000/svg" xmlns:xlink="http://www.w3.org/1999/xlink">
<defs>
<symbol id="icon-antenna" viewBox="0 0 32 32">
<path fill="#2e2f42" style="fill: var(--color1, #2e2f42)" d="M30.773 22.098l-8.443-8.505 0.937-4.615c0.242 0.094 0.499 0.143 0.759 0.145h0.006c0.008 0 0.017 0 0.026 0 1.192 0 2.159-0.967 2.159-2.159s-0.967-2.159-2.159-2.159c-1.192 0-2.159 0.967-2.159 2.159 0 0.26 0.046 0.508 0.13 0.739l-0.005-0.015-4.96 0.605-8.091-8.133c-0.096-0.098-0.229-0.159-0.376-0.16h-0c-0.14 0.001-0.274 0.057-0.373 0.155l-1.513 1.504c-0.097 0.097-0.156 0.23-0.156 0.377s0.060 0.281 0.156 0.377v0l0.814 0.825c-1.143 2.062-1.816 4.522-1.816 7.139 0 4.106 1.656 7.825 4.336 10.526l-0.001-0.001c0.042 0.041 0.091 0.073 0.146 0.098-0.032 0.164-0.051 0.353-0.052 0.546v6.188h-6.4c-1.472 0.001-2.666 1.194-2.667 2.666v1.067c0 0.295 0.239 0.533 0.534 0.533h24.534c0.294 0 0.534-0.239 0.534-0.534v-1.067c-0.002-1.472-1.195-2.665-2.667-2.666h-6.4v-2.742c1.003 0.21 2.024 0.317 3.049 0.32 2.58-0.003 5.005-0.663 7.117-1.822l-0.077 0.039 0.819 0.823c0.099 0.101 0.235 0.159 0.377 0.16 0.14-0.001 0.274-0.056 0.373-0.155l1.512-1.505c0.096-0.097 0.156-0.23 0.156-0.377s-0.060-0.28-0.156-0.377v0zM23.28 6.233c0.193-0.192 0.458-0.31 0.752-0.31 0.589 0 1.067 0.478 1.067 1.066s-0.477 1.066-1.067 1.066c-0 0-0 0-0 0h-0.003c-0.587-0.003-1.061-0.479-1.061-1.066 0-0.296 0.12-0.563 0.315-0.756l0-0h-0.002zM22.024 9.738l-0.599 2.945-1.175-1.182 1.774-1.764zM21.419 8.836l-1.92 1.909-1.485-1.493 3.405-0.415zM24.004 28.8c0.884 0 1.6 0.716 1.6 1.6v0 0.534h-23.466v-0.534c0-0.884 0.716-1.6 1.6-1.6h20.267zM16.538 26.666v1.067h-5.334v-1.067h5.334zM11.204 25.6v-4.053c0-1.294 1.197-2.346 2.666-2.346s2.667 1.053 2.667 2.346v4.053h-5.334zM17.604 23.904v-2.357c0-1.882-1.675-3.413-3.733-3.413-0.018-0-0.038-0-0.059-0-1.353 0-2.54 0.707-3.213 1.771l-0.009 0.016c-2.36-2.482-3.811-5.846-3.811-9.549 0-2.314 0.567-4.496 1.569-6.414l-0.036 0.077 18.602 18.709c-1.823 0.947-3.98 1.502-6.266 1.502-1.079 0-2.128-0.124-3.136-0.357l0.093 0.018zM28.893 23.221l-21.057-21.18 0.755-0.752 7.935 7.98c0.003 0 0.006 0.007 0.009 0.009l13.114 13.191-0.757 0.752z"></path>
<path fill="#4d5ae5" style="fill: var(--color2, #4d5ae5)" d="M13.876 20.267h-0.005c-0.001 0-0.002 0-0.002 0-0.884 0-1.6 0.716-1.6 1.6s0.715 1.599 1.597 1.6h0.005c0.001 0 0.002 0 0.002 0 0.884 0 1.6-0.716 1.6-1.6s-0.715-1.599-1.597-1.6h-0zM14.249 22.245c-0.096 0.096-0.229 0.155-0.376 0.155-0.295 0-0.534-0.239-0.534-0.534 0-0.001 0-0.001 0-0.002v0c0.002-0.292 0.238-0.529 0.53-0.53h0c0.293 0.002 0.531 0.24 0.531 0.534 0 0.148-0.060 0.281-0.157 0.378l-0 0h0.005z"></path>
</symbol>
<symbol id="icon-clock" viewBox="0 0 32 32">
<path fill="#2e2f42" style="fill: var(--color1, #2e2f42)" d="M31.297 15.301c-0.002-8.452-6.855-15.303-15.308-15.301s-15.303 6.855-15.301 15.308c0.002 6.788 4.422 12.543 10.541 14.545l0.108 0.031c0.060 0.019 0.123 0.029 0.187 0.029 0.121 0 0.239-0.032 0.342-0.093 0.135-0.080 0.236-0.207 0.284-0.357l3.865-12.25c1.054-0.004 1.906-0.859 1.906-1.913 0-1.057-0.856-1.913-1.913-1.913-0.303 0-0.59 0.070-0.844 0.196l0.011-0.005-5.106-5.107c-0.115-0.115-0.275-0.187-0.451-0.187-0.352 0-0.638 0.285-0.638 0.638 0 0.176 0.071 0.336 0.187 0.451v0l5.104 5.109c-0.121 0.241-0.191 0.525-0.191 0.826 0 0.601 0.283 1.137 0.723 1.48l0.004 0.003-3.683 11.673c-7.278-2.681-11.005-10.754-8.323-18.032 2.681-7.277 10.755-11.005 18.032-8.323s11.004 10.755 8.323 18.032c-1.345 3.581-4.004 6.406-7.374 7.938l-0.088 0.036-0.398-1.875c-0.063-0.291-0.318-0.505-0.624-0.505-0.163 0-0.312 0.061-0.425 0.162l0.001-0.001-3.837 3.425c-0.132 0.117-0.214 0.287-0.214 0.477 0 0.283 0.185 0.524 0.441 0.607l0.005 0.001 4.899 1.564c0.058 0.020 0.126 0.031 0.196 0.031 0.352 0 0.637-0.285 0.637-0.637 0-0.047-0.005-0.093-0.015-0.137l0.001 0.004-0.391-1.839c5.528-2.374 9.329-7.772 9.329-14.057 0-0.011 0-0.023-0-0.034v0.002zM15.992 14.664c0.352 0 0.638 0.286 0.638 0.638s-0.286 0.638-0.638 0.638v0c-0.352 0-0.638-0.286-0.638-0.638s0.286-0.638 0.638-0.638v0zM18.093 29.527l2.184-1.948 0.603 2.84-2.787-0.892z"></path>
<path fill="#4d5ae5" style="fill: var(--color2, #4d5ae5)" d="M15.354 3.185v1.275c0 0.352 0.285 0.638 0.637 0.638s0.638-0.285 0.638-0.638v-1.275c-0.014-0.341-0.294-0.613-0.637-0.613s-0.624 0.271-0.637 0.611l-0 0.001zM3.876 14.664c-0.352 0-0.637 0.285-0.637 0.637s0.285 0.637 0.638 0.637h1.275c0.352 0 0.638-0.285 0.638-0.637s-0.285-0.637-0.638-0.637h-1.275zM28.108 15.939c0.352 0 0.637-0.285 0.637-0.637s-0.285-0.637-0.637-0.637h-1.275c-0.341 0.014-0.613 0.294-0.613 0.637s0.271 0.624 0.611 0.637l0.001 0h1.275z"></path>
</symbol>
<symbol id="icon-diagram" viewBox="0 0 32 32">
<path fill="#4d5ae5" style="fill: var(--color2, #4d5ae5)" d="M14.925 14.965h1.066v4.797h-1.066v-4.797zM19.19 17.097h1.066v2.665h-1.066v-2.665zM10.661 18.696h1.066v1.066h-1.066v-1.066zM7.463 18.163h1.066v1.599h-1.066v-1.599z"></path>
<path fill="#2e2f42" style="fill: var(--color1, #2e2f42)" d="M1.599 28.291h25.587c0 0 0 0 0 0 0.883 0 1.599-0.716 1.599-1.599v0-2.133c0-0.883-0.716-1.599-1.599-1.599-0 0-0 0-0.001 0h-0.533v-13.293l3.028-2.868c0.207 0.105 0.452 0.166 0.711 0.166 0.888 0 1.608-0.72 1.608-1.608s-0.72-1.608-1.608-1.608c-0.888 0-1.608 0.72-1.608 1.608 0 0.247 0.055 0.48 0.155 0.689l-0.004-0.010-2.282 2.163v-1.23c0-0.883-0.716-1.599-1.599-1.599v0h-21.322c-0 0-0 0-0.001 0-0.883 0-1.599 0.716-1.599 1.599 0 0 0 0 0 0.001v-0 15.991h-0.533c-0.883 0-1.599 0.716-1.599 1.599 0 0 0 0 0 0.001v-0 2.133c0 0.883 0.716 1.599 1.599 1.599v0zM30.384 4.837c0.294 0 0.533 0.239 0.533 0.533s-0.239 0.533-0.533 0.533v0c-0.294 0-0.533-0.239-0.533-0.533s0.239-0.533 0.533-0.533v0zM3.199 6.969c0-0.295 0.239-0.534 0.533-0.534h21.322c0.294 0 0.533 0.239 0.533 0.534v2.238l-1.066 1.013v-2.185c0-0.295-0.238-0.533-0.533-0.533h-19.19c-0.295 0-0.533 0.239-0.533 0.533v13.326c0 0.295 0.239 0.534 0.533 0.534h19.19c0.294 0 0.533-0.239 0.533-0.534v-9.674l1.066-1.010v12.283h-22.388v-15.991zM7.996 13.899c-0.001 0-0.003 0-0.005 0-0.883 0-1.599 0.716-1.599 1.599s0.716 1.599 1.599 1.599c0.432 0 0.824-0.171 1.112-0.45l-0 0 1.853 0.93c0.215 0.108 0.476 0.057 0.636-0.123l3.938-4.431 3.872 2.902c0.208 0.156 0.498 0.139 0.686-0.040l3.365-3.188v8.131h-18.123v-12.26h18.124v2.66l-3.772 3.572-3.905-2.928c-0.088-0.066-0.199-0.106-0.319-0.106-0.158 0-0.3 0.069-0.398 0.178l-0 0.001-3.993 4.493-1.493-0.746c0.011-0.064 0.018-0.129 0.021-0.194-0-0.883-0.716-1.599-1.599-1.599h-0zM8.529 15.498c0 0.294-0.239 0.533-0.533 0.533s-0.533-0.239-0.533-0.533v0c0-0.294 0.239-0.533 0.533-0.533s0.533 0.239 0.533 0.533v0zM11.727 24.026h5.331v0.533c0 0.294-0.238 0.533-0.533 0.533h-4.264c-0.294 0-0.533-0.239-0.533-0.533v0-0.533zM1.066 24.56c0-0.294 0.239-0.533 0.533-0.533h9.062v0.533c0 0 0 0 0 0 0 0.883 0.716 1.599 1.599 1.599h4.265c0.883 0 1.599-0.716 1.599-1.599 0-0 0-0 0-0.001v0-0.533h9.061c0.295 0 0.534 0.238 0.534 0.533v2.133c0 0.294-0.239 0.533-0.534 0.533h-25.586c-0.294 0-0.533-0.239-0.533-0.533v0-2.133z"></path>
</symbol>
<symbol id="icon-astronaut" viewBox="0 0 32 32">
<path fill="#4d5ae5" style="fill: var(--color2, #4d5ae5)" d="M31.974 4.524c-0.064-0.191-0.227-0.332-0.427-0.362l-0.003-0-1.911-0.278-0.855-1.731c-0.179-0.365-0.776-0.365-0.956 0l-0.855 1.731-1.91 0.278c-0.26 0.039-0.457 0.26-0.457 0.528 0 0.149 0.061 0.285 0.161 0.381l1.383 1.348-0.326 1.903c-0.034 0.2 0.048 0.402 0.212 0.521 0.166 0.12 0.383 0.136 0.562 0.040l1.709-0.899 1.709 0.899c0.072 0.038 0.157 0.061 0.247 0.061 0.295 0 0.534-0.239 0.534-0.534 0-0.031-0.003-0.062-0.008-0.092l0 0.003-0.326-1.903 1.383-1.348c0.099-0.097 0.161-0.233 0.161-0.382 0-0.059-0.009-0.115-0.027-0.168l0.001 0.004zM29.511 5.851c-0.125 0.122-0.183 0.299-0.153 0.472l0.191 1.114-1-0.526c-0.072-0.039-0.158-0.062-0.248-0.062s-0.177 0.023-0.251 0.063l0.003-0.001-1 0.526 0.191-1.114c0.005-0.027 0.008-0.058 0.008-0.090 0-0.15-0.061-0.285-0.161-0.382l-0.81-0.79 1.119-0.162c0.174-0.025 0.323-0.135 0.401-0.292l0.5-1.013 0.501 1.013c0.078 0.157 0.228 0.267 0.402 0.292l1.119 0.162-0.809 0.79zM26.134 20.522h-1.067v1.067h1.067v-1.067zM26.134 22.655h-1.067v1.067h1.067v-1.067z"></path>
<path fill="#4d5ae5" style="fill: var(--color2, #4d5ae5)" d="M27.2 21.589h-1.067v1.067h1.067v-1.067zM25.067 21.589h-1.067v1.067h1.067v-1.067zM22.4 26.389h-1.067v1.067h1.067v-1.067zM22.4 28.523h-1.067v1.067h1.067v-1.067zM23.467 27.456h-1.067v1.067h1.067v-1.067z"></path>
<path fill="#4d5ae5" style="fill: var(--color2, #4d5ae5)" d="M21.334 27.456h-1.067v1.067h1.067v-1.067zM16 24.256h-1.066v1.067h1.066v-1.067zM16 26.389h-1.066v1.067h1.066v-1.067zM17.067 25.323h-1.067v1.067h1.067v-1.067zM14.934 25.323h-1.067v1.067h1.067v-1.067zM5.867 6.122h-1.066v1.066h1.066v-1.066zM5.867 8.255h-1.066v1.067h1.066v-1.066zM6.933 7.189h-1.066v1.067h1.066v-1.067zM4.8 7.189h-1.067v1.067h1.067v-1.067z"></path>
<path fill="#2e2f42" style="fill: var(--color1, #2e2f42)" d="M24.715 14.159c-0.28-0.377-0.699-0.636-1.179-0.704l-0.009-0.001c-0.076-0.012-0.164-0.018-0.254-0.018-0.411 0-0.789 0.139-1.090 0.374l0.004-0.003-1.252 0.96-1.898 1.417-1.358-0.541c2.421-1.086 4.114-3.508 4.114-6.32 0-3.823-3.122-6.933-6.961-6.933s-6.962 3.11-6.962 6.933c0 1.386 0.414 2.674 1.12 3.758l-2.769-0.024c-0.008 0-0.015 0.005-0.024 0.005-0.053 0.002-0.104 0.012-0.155 0.030-0.013 0.005-0.026 0.008-0.038 0.014-0.006 0.002-0.013 0.003-0.019 0.007l-3.234 1.597-1.893 0.911c-0.024 0.011-0.045 0.023-0.064 0.036l0.001-0.001c-0.482 0.324-0.794 0.866-0.794 1.482 0 0.297 0.073 0.576 0.201 0.822l-0.005-0.010c0.22 0.429 0.595 0.745 1.056 0.89 0.161 0.053 0.345 0.083 0.537 0.083 0.308 0 0.598-0.078 0.851-0.216l-0.009 0.005 1.388-0.738 2.264-1.169 1.357-0.008-5.442 5.415c0 0.001-0.001 0.001-0.002 0.002l-1.339 1.333c-0.303 0.299-0.49 0.714-0.49 1.173 0 0.002 0 0.003 0 0.005v-0c0 0.445 0.173 0.863 0.49 1.178 0.325 0.323 0.752 0.485 1.179 0.485s0.855-0.162 1.18-0.485l1.314-1.308 1.74-1.3 0.901 0.897-3.102 3.088c-0.303 0.299-0.49 0.714-0.49 1.173 0 0.002 0 0.003 0 0.005v-0c0 0.445 0.174 0.863 0.49 1.179 0.325 0.323 0.752 0.485 1.18 0.485s0.855-0.162 1.18-0.485l3.482-3.466c0-0.001 0-0.002 0.001-0.002l1.010-1-0.004-0.003c0.007-0.006 0.015-0.009 0.022-0.015l5.166-5.658 3.471 0.494c0.020 0.003 0.044 0.004 0.068 0.004 0.070 0 0.137-0.014 0.198-0.039l-0.003 0.001c0.017-0.006 0.033-0.015 0.050-0.023 0.019-0.009 0.039-0.015 0.057-0.027l3.213-2.134c0.012-0.008 0.018-0.020 0.029-0.029 0.012-0.010 0.029-0.014 0.040-0.025l1.272-1.192c0.347-0.326 0.564-0.787 0.564-1.299 0-0.4-0.132-0.77-0.355-1.067l0.003 0.005zM2.13 17.77c-0.173 0.093-0.37 0.111-0.558 0.052-0.295-0.093-0.505-0.364-0.505-0.683 0-0.236 0.114-0.445 0.29-0.575l0.002-0.001 1.314-0.632 0.316 0.925 0.133 0.388-0.993 0.527zM5.628 15.943l-1.548 0.8-0.255-0.747-0.183-0.537 2.026-1-0.040 1.483zM20.727 9.322c0 0.918-0.219 1.785-0.599 2.559l-4.181-1.899c-0.043-0.575-0.342-1.073-0.782-1.384l-0.006-0.004 1.464-4.86c2.378 0.755 4.105 2.974 4.105 5.587zM8.938 9.322c0-3.235 2.644-5.867 5.894-5.867 0.253 0 0.5 0.022 0.745 0.053l-1.432 4.753c-0.019 0-0.037-0.005-0.057-0.005-0 0-0 0-0.001 0-1.032 0-1.869 0.835-1.872 1.866v0c0.003 1.031 0.84 1.867 1.872 1.867 0 0 0 0 0.001 0h-0c0.694 0 1.294-0.383 1.618-0.944l3.863 1.755c-1.075 1.447-2.795 2.39-4.736 2.39-3.25 0-5.895-2.633-5.895-5.867zM14.895 10.122c0 0.441-0.362 0.8-0.806 0.8-0.001 0-0.001 0-0.002 0-0.443 0-0.802-0.358-0.804-0.8v-0c0-0.441 0.361-0.8 0.806-0.8s0.806 0.359 0.806 0.8zM2.465 25.146c-0.11 0.108-0.261 0.175-0.428 0.175s-0.317-0.067-0.427-0.175l0 0c-0.109-0.108-0.176-0.257-0.176-0.422s0.067-0.315 0.176-0.422l0-0 0.962-0.959 0.851 0.848-0.958 0.955zM5.678 28.88c-0.11 0.109-0.261 0.176-0.428 0.176s-0.317-0.067-0.427-0.175l0 0c-0.109-0.108-0.176-0.257-0.176-0.422s0.067-0.315 0.176-0.422l0-0 0.963-0.959 0.851 0.848-0.96 0.955zM9.161 25.411l-0.002 0.001-1.765 1.76-0.851-0.848 1.763-1.756s0.001 0 0.002-0.001c0.040-0.040 0.065-0.088 0.090-0.135 0.007-0.014 0.020-0.026 0.026-0.040 0.017-0.041 0.019-0.085 0.025-0.129 0.004-0.024 0.014-0.047 0.014-0.073 0-0.035-0.012-0.070-0.020-0.105-0.007-0.032-0.007-0.065-0.018-0.096-0.020-0.050-0.055-0.095-0.091-0.137-0.010-0.012-0.014-0.027-0.025-0.038h-0.001l-0.001-0.002-1.607-1.6c-0.017-0.017-0.039-0.024-0.058-0.038-0.025-0.021-0.054-0.040-0.084-0.056l-0.003-0.001c-0.027-0.013-0.058-0.024-0.090-0.032l-0.003-0.001c-0.030-0.009-0.065-0.017-0.101-0.020l-0.002-0c-0.006-0-0.013-0-0.020-0-0.026 0-0.052 0.002-0.077 0.006l0.003-0c-0.039 0.004-0.074 0.011-0.108 0.021l0.004-0.001c-0.036 0.013-0.067 0.028-0.096 0.046l0.002-0.001c-0.020 0.011-0.043 0.015-0.061 0.029l-1.774 1.324-0.901-0.897 2.399-2.386 4.36 4.289-0.927 0.919zM15.979 18.394c-0.015-0.002-0.030 0.004-0.045 0.003-0.008-0-0.017-0.001-0.026-0.001-0.031 0-0.062 0.003-0.092 0.008l0.003-0c-0.070 0.011-0.132 0.035-0.187 0.069l0.002-0.001c-0.030 0.018-0.057 0.038-0.083 0.061-0.013 0.011-0.028 0.017-0.040 0.029l-4.698 5.146-4.328-4.257 2.833-2.818c0.096-0.097 0.156-0.23 0.156-0.377 0-0.295-0.239-0.534-0.534-0.534-0 0-0.001 0-0.001 0h0l-2.219 0.013 0.027-1.607 3.104 0.027c1.264 1.297 3.027 2.101 4.978 2.101 0.001 0 0.002 0 0.003 0h-0c0.438 0 0.864-0.045 1.279-0.122 0.040 0.032 0.079 0.064 0.13 0.085l2.409 0.96 0.152 0.758 0.178 0.885-3.003-0.427zM20.020 18.573l-0.314-1.558 1.447-1.080 0.947 1.257-2.080 1.381zM23.774 15.742l-0.838 0.785-0.931-1.236 0.831-0.637c0.155-0.12 0.351-0.168 0.543-0.143 0.194 0.027 0.364 0.128 0.48 0.284 0.217 0.292 0.18 0.699-0.085 0.947z"></path>
<path fill="#2e2f42" style="fill: var(--color1, #2e2f42)" d="M13.602 18.544l-2.143-2.134c-0.096-0.096-0.229-0.155-0.376-0.155s-0.28 0.059-0.376 0.155l-2.143 2.134c-0.097 0.097-0.156 0.231-0.156 0.378s0.060 0.281 0.156 0.378l-0-0 2.143 2.133c0.096 0.096 0.229 0.155 0.376 0.155s0.28-0.059 0.376-0.155l2.143-2.133c0.097-0.097 0.157-0.23 0.157-0.378s-0.060-0.282-0.157-0.378l-0-0zM11.083 20.303l-1.386-1.381 1.386-1.381 1.387 1.381-1.387 1.381zM17.164 5.071l-0.258 1.035c0.071 0.018 1.738 0.452 1.738 2.149h1.067c0-2.017-1.666-2.966-2.546-3.185zM19.711 9.322h-1.067v1.067h1.067v-1.067z"></path>
</symbol>
<symbol id="icon-instagram" viewBox="0 0 32 32">
<path fill="#f4f4fd" style="fill: var(--color3, #f4f4fd)" d="M31.968 9.408c-0.074-1.7-0.35-2.87-0.744-3.882-0.424-1.112-1.053-2.060-1.849-2.839l-0.001-0.001c-0.78-0.791-1.724-1.417-2.778-1.824l-0.054-0.018c-1.020-0.394-2.18-0.67-3.88-0.744-1.716-0.080-2.262-0.1-6.602-0.1-4.346 0-4.89 0.020-6.596 0.094-1.7 0.074-2.868 0.35-3.88 0.744-1.112 0.424-2.060 1.053-2.839 1.849l-0.001 0.001c-0.792 0.78-1.419 1.724-1.826 2.778l-0.018 0.054c-0.394 1.020-0.668 2.18-0.744 3.88-0.080 1.714-0.1 2.26-0.1 6.602 0 4.346 0.020 4.89 0.094 6.596 0.074 1.7 0.35 2.87 0.744 3.882 0.406 1.076 1.038 2.038 1.85 2.838 0.8 0.812 1.77 1.444 2.832 1.844 1.020 0.394 2.18 0.67 3.882 0.744 1.706 0.076 2.25 0.094 6.596 0.094 4.344 0 4.888-0.020 6.594-0.094 1.7-0.074 2.87-0.35 3.882-0.744 2.157-0.85 3.832-2.525 4.663-4.627l0.019-0.055c0.394-1.020 0.67-2.18 0.744-3.882 0.076-1.706 0.094-2.25 0.094-6.596 0-4.344-0.006-4.888-0.080-6.594zM29.088 22.472c-0.070 1.564-0.332 2.408-0.552 2.97-0.551 1.4-1.638 2.488-3.002 3.027l-0.036 0.013c-0.562 0.218-1.412 0.48-2.968 0.548-1.688 0.076-2.194 0.094-6.464 0.094s-4.782-0.020-6.464-0.094c-1.564-0.068-2.408-0.33-2.97-0.55-0.721-0.269-1.335-0.676-1.837-1.193l-0.001-0.001c-0.516-0.504-0.923-1.118-1.183-1.804l-0.011-0.034c-0.22-0.562-0.48-1.412-0.55-2.968-0.074-1.688-0.094-2.196-0.094-6.464 0-4.27 0.020-4.782 0.094-6.464 0.070-1.564 0.332-2.408 0.55-2.97 0.256-0.694 0.664-1.324 1.2-1.838 0.52-0.532 1.144-0.938 1.84-1.194 0.56-0.22 1.412-0.48 2.968-0.55 1.688-0.074 2.194-0.094 6.464-0.094 4.276 0 4.78 0.020 6.464 0.094 1.562 0.070 2.406 0.332 2.968 0.55 0.694 0.256 1.326 0.662 1.84 1.194 0.53 0.52 0.936 1.144 1.192 1.84 0.22 0.56 0.482 1.41 0.55 2.968 0.076 1.688 0.094 2.194 0.094 6.464s-0.018 4.77-0.092 6.456z"></path>
<path fill="#f4f4fd" style="fill: var(--color3, #f4f4fd)" d="M16.060 7.782c-4.462 0.102-8.041 3.743-8.041 8.22s3.578 8.118 8.031 8.22l0.009 0c4.462-0.102 8.041-3.743 8.041-8.22s-3.578-8.118-8.031-8.22l-0.009-0zM16.060 21.336c-2.946 0-5.334-2.388-5.334-5.334s2.388-5.334 5.334-5.334v0c2.946 0 5.334 2.388 5.334 5.334s-2.388 5.334-5.334 5.334v0zM26.524 7.458c0 1.060-0.86 1.92-1.92 1.92s-1.92-0.86-1.92-1.92v0c0-1.060 0.86-1.92 1.92-1.92s1.92 0.86 1.92 1.92v0z"></path>
</symbol>
<symbol id="icon-twitter" viewBox="0 0 32 32">
<path fill="#f4f4fd" style="fill: var(--color3, #f4f4fd)" d="M32 6.078c-1.1 0.494-2.376 0.858-3.712 1.029l-0.068 0.007c1.36-0.817 2.381-2.078 2.873-3.58l0.013-0.046c-1.197 0.723-2.591 1.274-4.076 1.574l-0.084 0.014c-1.2-1.279-2.901-2.076-4.788-2.076-3.623 0-6.56 2.937-6.56 6.56v0c0 0.52 0.044 1.020 0.152 1.496-5.468-0.276-10.278-2.878-13.495-6.828l-0.027-0.034c-0.563 0.949-0.895 2.091-0.895 3.311 0 2.264 1.145 4.261 2.888 5.442l0.023 0.015c-1.092-0.030-2.109-0.325-2.997-0.823l0.033 0.017v0.072c0.004 3.164 2.237 5.806 5.213 6.438l0.043 0.008c-0.501 0.137-1.075 0.216-1.669 0.216-0.018 0-0.036-0-0.054-0l0.003 0c-0.031 0.001-0.067 0.001-0.103 0.001-0.403 0-0.796-0.041-1.176-0.119l0.037 0.006c0.873 2.624 3.273 4.496 6.121 4.57l0.009 0c-2.214 1.744-5.044 2.798-8.12 2.798-0.005 0-0.010 0-0.015 0h0.001c-0.538 0-1.054-0.024-1.57-0.090 2.826 1.846 6.287 2.944 10.004 2.944 0.021 0 0.042-0 0.063-0h-0.003c12.072 0 18.672-10 18.672-18.668 0-0.29-0.010-0.57-0.024-0.848 1.299-0.937 2.391-2.066 3.258-3.359l0.030-0.047z"></path>
</symbol>
<symbol id="icon-facebook" viewBox="0 0 32 32">
<path fill="#f4f4fd" style="fill: var(--color3, #f4f4fd)" d="M21.33 5.314h2.92v-5.088c-1.238-0.144-2.672-0.226-4.125-0.226-0.046 0-0.092 0-0.138 0l0.007-0c-4.212 0-7.094 2.65-7.094 7.52v4.48h-4.65v5.688h4.648v14.312h5.698v-14.31h4.46l0.708-5.69h-5.17v-3.92c0.002-1.644 0.444-2.768 2.736-2.768z"></path>
</symbol>
<symbol id="icon-linkedin" viewBox="0 0 32 32">
<path fill="#f4f4fd" style="fill: var(--color3, #f4f4fd)" d="M31.992 32h0.008v-11.74c0-5.74-1.236-10.164-7.948-10.164-3.226 0-5.392 1.772-6.276 3.45h-0.094v-2.912h-6.362v21.366h6.628v-10.58c0-2.784 0.528-5.476 3.976-5.476 3.4 0 3.45 3.178 3.45 5.656v10.4h6.62zM0.528 10.636h6.634v21.364h-6.634v-21.364zM3.842 0c-2.12 0-3.842 1.72-3.842 3.84s1.72 3.88 3.842 3.88 3.844-1.76 3.844-3.88c-0.002-2.118-1.726-3.84-3.846-3.84z"></path>
</symbol>
<symbol id="icon-lient1" viewBox="0 0 61 32">
<path fill="#8e8f99" style="fill: var(--color4, #8e8f99)" d="M25.455 8.364l2.548 2.428-4.73-0.002v11.778h12.364v-4.503l2.545 2.425v-12.125h-12.727zM35.524 17.779l-7.225-6.884h7.225v6.884zM33.281 20.844h-8.052v-7.921h0.569v7.385h7.483v0.537zM26.835 24.75l-0.3-0.617h-0.248l0.435 0.817v0.476h0.224v-0.476l0.435-0.817h-0.247l-0.3 0.617zM27.941 24.132h0.053l0.488 1.293h-0.234l-0.105-0.303h-0.5l-0.104 0.303h-0.233l0.487-1.293h0.149zM27.704 24.946h0.379l-0.189-0.548-0.189 0.548zM29.266 24.731c-0.004-0.005-0.013-0.016-0.022-0.028l-0.006-0.008c-0.029-0.037-0.055-0.078-0.076-0.123l-0.002-0.004c-0.017-0.038-0.027-0.081-0.027-0.128 0-0 0-0 0-0v0c0-0.067 0.014-0.125 0.041-0.174s0.068-0.087 0.117-0.111l0.002-0.001c0.051-0.027 0.111-0.040 0.178-0.040 0.066 0 0.123 0.013 0.17 0.040 0.090 0.047 0.15 0.14 0.15 0.247 0 0.040-0.008 0.078-0.024 0.112l0.001-0.002c-0.016 0.036-0.037 0.066-0.062 0.093l0-0c-0.027 0.029-0.057 0.055-0.088 0.078l-0.002 0.001-0.090 0.065 0.256 0.302c0.035-0.068 0.056-0.147 0.056-0.232 0-0.003-0-0.006-0-0.010v0h0.185c0 0.063-0.006 0.122-0.019 0.178-0.017 0.081-0.050 0.153-0.096 0.215l0.001-0.002 0.189 0.224h-0.247l-0.075-0.088c-0.038 0.029-0.082 0.054-0.129 0.072l-0.003 0.001c-0.058 0.021-0.126 0.033-0.196 0.033-0.002 0-0.003 0-0.005-0h0c-0.086 0-0.16-0.016-0.223-0.047-0.060-0.029-0.11-0.074-0.145-0.128l-0.001-0.001c-0.032-0.052-0.051-0.115-0.051-0.183 0-0.002 0-0.004 0-0.006v0c0-0.053 0.011-0.099 0.033-0.138 0.022-0.040 0.052-0.078 0.090-0.112 0.035-0.032 0.075-0.064 0.12-0.095zM29.372 24.861l-0.027 0.019c-0.027 0.021-0.050 0.045-0.069 0.073l-0.001 0.001c-0.023 0.034-0.036 0.075-0.036 0.12 0 0.036 0.009 0.070 0.025 0.1l-0.001-0.001c0.017 0.031 0.041 0.056 0.071 0.073l0.001 0c0.032 0.017 0.069 0.027 0.109 0.027 0.003 0 0.005-0 0.008-0h-0c0.049 0 0.097-0.011 0.143-0.033 0.025-0.012 0.046-0.026 0.066-0.041l-0.001 0.001-0.287-0.338zM29.423 24.625l0.079-0.053c0.032-0.019 0.058-0.044 0.079-0.072l0.001-0.001c0.015-0.024 0.024-0.053 0.024-0.085 0-0.002-0-0.004-0-0.006v0c-0.002-0.069-0.059-0.125-0.129-0.125-0.003 0-0.005 0-0.008 0l0-0c-0.001-0-0.002-0-0.004-0-0.053 0-0.098 0.031-0.119 0.076l-0 0.001c-0.010 0.022-0.015 0.047-0.015 0.073 0 0.031 0.008 0.060 0.021 0.086l-0-0.001c0.013 0.028 0.032 0.057 0.056 0.088l0.015 0.019zM31.685 25.004h-0.222c-0.005 0.053-0.020 0.101-0.042 0.145l0.001-0.002c-0.020 0.038-0.051 0.069-0.089 0.087l-0.001 0.001c-0.041 0.019-0.089 0.030-0.14 0.030-0.005 0-0.010-0-0.014-0l0.001 0c-0.002 0-0.005 0-0.007 0-0.046 0-0.090-0.012-0.128-0.032l0.001 0.001c-0.038-0.022-0.069-0.051-0.092-0.087l-0.001-0.001c-0.024-0.039-0.042-0.084-0.053-0.133l-0-0.003c-0.011-0.051-0.017-0.11-0.017-0.171 0-0.002 0-0.005 0-0.007v0-0.109c0-0.069 0.006-0.13 0.019-0.183s0.032-0.099 0.057-0.136c0.024-0.035 0.056-0.064 0.093-0.083l0.001-0.001c0.037-0.018 0.080-0.028 0.126-0.028 0.003 0 0.005 0 0.008 0h-0c0.062 0 0.112 0.011 0.151 0.032s0.067 0.051 0.087 0.091c0.020 0.039 0.033 0.087 0.039 0.143h0.222c-0.008-0.086-0.034-0.164-0.074-0.232l0.001 0.003c-0.040-0.067-0.096-0.121-0.163-0.156l-0.002-0.001c-0.071-0.036-0.155-0.057-0.244-0.057-0.006 0-0.012 0-0.018 0l0.001-0c-0.081 0-0.154 0.014-0.219 0.043s-0.12 0.069-0.166 0.124c-0.046 0.054-0.083 0.118-0.105 0.188l-0.001 0.004c-0.024 0.075-0.036 0.159-0.036 0.252v0.108c0 0.093 0.012 0.177 0.036 0.252s0.059 0.139 0.105 0.193c0.045 0.053 0.1 0.093 0.164 0.123s0.136 0.043 0.216 0.043c0.104 0 0.193-0.019 0.265-0.057s0.129-0.090 0.169-0.156c0.040-0.066 0.064-0.142 0.071-0.226zM32.918 24.814v-0.071c0-0.098-0.013-0.185-0.039-0.262-0.024-0.076-0.062-0.142-0.11-0.199l0.001 0.001c-0.046-0.053-0.102-0.096-0.167-0.124l-0.003-0.001c-0.065-0.029-0.138-0.044-0.218-0.044s-0.152 0.015-0.217 0.044c-0.065 0.028-0.122 0.070-0.17 0.125s-0.084 0.121-0.11 0.198c-0.025 0.075-0.039 0.161-0.039 0.25 0 0.004 0 0.008 0 0.012v-0.001 0.071c0 0.098 0.013 0.185 0.039 0.263 0.026 0.076 0.064 0.142 0.112 0.199l-0.001-0.001c0.048 0.055 0.105 0.096 0.17 0.125s0.138 0.043 0.217 0.043c0.080 0 0.153-0.015 0.218-0.043 0.065-0.029 0.122-0.071 0.169-0.125s0.084-0.12 0.109-0.198c0.025-0.077 0.038-0.165 0.038-0.263zM32.695 24.741v0.073c0 0.072-0.007 0.136-0.021 0.192-0.012 0.054-0.033 0.101-0.061 0.143l0.001-0.002c-0.025 0.036-0.058 0.065-0.096 0.085l-0.001 0.001c-0.037 0.018-0.081 0.028-0.126 0.028-0.002 0-0.004-0-0.006-0h0c-0.002 0-0.004 0-0.006 0-0.046 0-0.089-0.010-0.128-0.029l0.002 0.001c-0.040-0.021-0.073-0.050-0.099-0.085l-0.001-0.001c-0.028-0.040-0.049-0.087-0.062-0.138l-0.001-0.003c-0.014-0.055-0.022-0.117-0.022-0.182 0-0.004 0-0.007 0-0.011v0.001-0.073c0-0.072 0.007-0.136 0.021-0.191s0.035-0.102 0.061-0.139c0.025-0.036 0.058-0.065 0.097-0.084l0.002-0.001c0.037-0.019 0.080-0.029 0.127-0.029 0.002 0 0.004 0 0.005 0h-0c0.049 0 0.093 0.010 0.132 0.029s0.072 0.047 0.098 0.085c0.027 0.037 0.048 0.084 0.061 0.139 0.015 0.055 0.021 0.119 0.021 0.191z"></path>
</symbol>
<symbol id="icon-lient2" viewBox="0 0 61 32">
<path fill="#8e8f99" style="fill: var(--color4, #8e8f99)" d="M29.86 7.976h-0.050c-0.063-0.004-0.143-0.007-0.223-0.008l-0.006-0h-0.165c-0.144 0-0.292 0.004-0.438 0.011-0.005-0-0.011-0.001-0.017-0.001s-0.012 0-0.017 0.001l0.001-0c-1.404 0.082-2.707 0.433-3.885 1.002l0.061-0.027-0.157 0.076v8.052l0.368-0.125c0.323-0.111 0.667-0.211 1.023-0.303 0.88-0.235 1.892-0.377 2.935-0.391l0.008-0v1.058c-0.132 0.001-0.259 0.004-0.387 0.011h-0.031c-0.827 0.046-1.601 0.171-2.347 0.366l0.082-0.018c-1.025 0.261-1.923 0.621-2.757 1.082l0.059-0.030v-10.326c0.815-0.484 1.758-0.879 2.756-1.135l0.075-0.016c0.8-0.215 1.718-0.34 2.665-0.344h0.158c0.186 0.005 0.367 0.013 0.537 0.026 0.448 0.032 0.893 0.103 1.329 0.212v1.041c-0.371-0.091-0.811-0.16-1.261-0.193l-0.027-0.002-0.027-0.002c-0.077-0.008-0.168-0.014-0.26-0.016l-0.003-0zM31.692 9.040c0.231 0.018 0.47 0.026 0.712 0.026 0.998-0.004 1.964-0.135 2.885-0.378l-0.080 0.018c1.025-0.261 1.922-0.622 2.757-1.082l-0.060 0.030v10.142c-0.815 0.484-1.758 0.879-2.756 1.135l-0.075 0.016c-0.8 0.214-1.718 0.339-2.666 0.343h-0.002c-0.019 0-0.042 0-0.066 0-0.695 0-1.37-0.087-2.014-0.251l0.056 0.012v-10.208c0.156 0.036 0.317 0.069 0.481 0.097 0.269 0.045 0.552 0.079 0.828 0.099zM36.853 9.119l-0.368 0.124c-0.338 0.114-0.68 0.216-1.023 0.306-0.916 0.245-1.969 0.388-3.054 0.392h-0.002c-0.24 0-0.461-0.007-0.674-0.020l-0.293-0.019v8.283l0.252 0.022c0.233 0.021 0.475 0.031 0.717 0.031 0.857-0.004 1.686-0.117 2.476-0.327l-0.068 0.015c0.722-0.183 1.348-0.415 1.941-0.703l-0.060 0.026 0.157-0.076v-8.054z"></path>
<path fill="#8e8f99" style="fill: var(--color4, #8e8f99)" d="M24.632 22.259c-0.099-0.102-0.237-0.166-0.39-0.166-0.007 0-0.013 0-0.020 0l0.001-0c-0.002-0-0.005-0-0.008-0-0.082 0-0.161 0.016-0.232 0.046l0.004-0.001c-0.14 0.056-0.248 0.166-0.301 0.303l-0.001 0.004c-0.029 0.073-0.043 0.15-0.042 0.228v1.38c-0.004 0.097 0.015 0.194 0.054 0.283 0.033 0.071 0.080 0.134 0.138 0.185 0.055 0.046 0.12 0.080 0.189 0.098 0.067 0.019 0.137 0.028 0.206 0.028 0.077 0.001 0.153-0.016 0.223-0.048 0.207-0.092 0.349-0.296 0.349-0.533v-0.154h-0.361v0.123c0 0.003 0 0.005 0 0.008 0 0.041-0.008 0.081-0.022 0.117l0.001-0.002c-0.012 0.030-0.030 0.056-0.052 0.078l-0 0c-0.041 0.032-0.094 0.052-0.151 0.053h-0c-0.006 0.001-0.014 0.001-0.021 0.001-0.061 0-0.114-0.029-0.148-0.075l-0-0c-0.030-0.049-0.048-0.108-0.048-0.171 0-0.005 0-0.010 0-0.015l-0 0.001v-1.287c-0.002-0.071 0.013-0.142 0.044-0.206 0.033-0.051 0.090-0.085 0.155-0.085 0.008 0 0.015 0 0.022 0.001l-0.001-0c0.002-0 0.004-0 0.007-0 0.063 0 0.119 0.030 0.154 0.077l0 0c0.037 0.049 0.060 0.11 0.060 0.177 0 0.003-0 0.005-0 0.008v-0 0.119h0.357v-0.141c0-0.002 0-0.004 0-0.006 0-0.085-0.016-0.166-0.046-0.24l0.002 0.004c-0.028-0.075-0.069-0.14-0.121-0.194l0 0zM26.774 22.244c-0.11-0.094-0.253-0.151-0.41-0.152h-0c-0.073 0-0.147 0.013-0.215 0.039-0.149 0.053-0.266 0.163-0.329 0.302l-0.001 0.004c-0.036 0.084-0.055 0.175-0.053 0.267v1.323c-0.002 0.093 0.016 0.185 0.053 0.271 0.033 0.071 0.080 0.134 0.14 0.185 0.055 0.051 0.12 0.091 0.191 0.116 0.069 0.025 0.142 0.039 0.215 0.039 0.158-0 0.301-0.059 0.411-0.156l-0.001 0.001c0.057-0.052 0.104-0.115 0.136-0.185 0.037-0.085 0.055-0.178 0.052-0.271v-1.323c0-0.004 0-0.008 0-0.012 0-0.092-0.019-0.18-0.054-0.259l0.002 0.004c-0.034-0.076-0.079-0.14-0.136-0.193l-0-0zM26.606 24.027c0.001 0.006 0.001 0.013 0.001 0.020 0 0.067-0.028 0.128-0.072 0.171l-0 0c-0.046 0.038-0.105 0.062-0.17 0.062s-0.124-0.023-0.17-0.062l0 0c-0.045-0.043-0.073-0.104-0.073-0.17 0-0.007 0-0.015 0.001-0.022l-0 0.001v-1.323c-0.001-0.006-0.001-0.013-0.001-0.020 0-0.067 0.028-0.128 0.072-0.171l0-0c0.046-0.038 0.105-0.062 0.17-0.062s0.124 0.023 0.17 0.062l-0-0c0.045 0.043 0.073 0.104 0.073 0.171 0 0.007-0 0.014-0.001 0.021l0-0.001v1.324zM29.588 24.618v-2.505h-0.347l-0.456 1.326h-0.006l-0.459-1.326h-0.343v2.505h0.358v-1.524h0.006l0.351 1.077h0.179l0.353-1.077h0.007v1.524h0.358zM31.621 22.289c-0.055-0.062-0.125-0.109-0.202-0.137-0.073-0.025-0.158-0.039-0.246-0.039-0.005 0-0.010 0-0.014 0h-0.531v2.505h0.357v-0.979h0.184c0.112 0.005 0.222-0.019 0.322-0.068 0.082-0.046 0.148-0.111 0.195-0.189l0.001-0.002c0.041-0.067 0.069-0.141 0.082-0.218 0.012-0.079 0.019-0.17 0.019-0.262 0-0.008-0-0.016-0-0.024v0.001c0.004-0.12-0.008-0.241-0.035-0.358-0.025-0.090-0.071-0.168-0.132-0.23l0 0zM31.437 23.052c-0.002 0.048-0.014 0.093-0.034 0.132l0.001-0.002c-0.021 0.038-0.052 0.069-0.091 0.087l-0.001 0.001c-0.044 0.020-0.096 0.032-0.15 0.032-0.006 0-0.013-0-0.019-0l0.001 0h-0.163v-0.852h0.184c0.005-0 0.011-0 0.017-0 0.052 0 0.102 0.012 0.146 0.033l-0.002-0.001c0.037 0.021 0.066 0.053 0.083 0.091l0.001 0.001c0.020 0.044 0.030 0.092 0.031 0.14v0.167c0 0.058 0.004 0.119 0 0.172h-0.004zM33.312 22.113h-0.293l-0.552 2.505h0.357l0.105-0.538h0.487l0.105 0.538h0.357l-0.565-2.505zM32.983 23.739l0.176-0.908h0.007l0.175 0.908h-0.357zM35.618 23.622h-0.007l-0.539-1.509h-0.343v2.505h0.357v-1.507h0.007l0.545 1.506h0.336v-2.505h-0.357v1.509zM37.799 22.113l-0.287 0.996h-0.007l-0.287-0.996h-0.378l0.49 1.447v1.059h0.357v-1.059l0.49-1.446h-0.378zM23.636 25.325h0.172v0.483h0.117v-0.483h0.171v-0.099h-0.46v0.099zM25.083 25.226l-0.225 0.582h0.124l0.048-0.132h0.232l0.049 0.132h0.127l-0.231-0.582h-0.124zM25.064 25.578l0.079-0.216 0.079 0.216h-0.158zM26.512 25.593h0.135v0.075c-0.038 0.030-0.086 0.049-0.138 0.049h-0c-0.003 0-0.005 0-0.008 0-0.047 0-0.088-0.022-0.115-0.056l-0-0c-0.027-0.039-0.043-0.087-0.043-0.139 0-0.005 0-0.009 0-0.014l-0 0.001c0-0.129 0.056-0.194 0.167-0.194 0.004-0 0.008-0.001 0.013-0.001 0.057 0 0.105 0.039 0.119 0.093l0 0.001 0.115-0.022c-0.025-0.114-0.107-0.171-0.247-0.171-0.002-0-0.005-0-0.008-0-0.075 0-0.144 0.028-0.195 0.075l0-0c-0.052 0.051-0.084 0.123-0.084 0.202 0 0.008 0 0.015 0.001 0.023l-0-0.001c-0 0.004-0 0.009-0 0.014 0 0.078 0.028 0.15 0.075 0.205l-0-0c0.051 0.053 0.123 0.086 0.203 0.086 0.006 0 0.013-0 0.019-0.001l-0.001 0c0.003 0 0.006 0 0.010 0 0.091 0 0.175-0.035 0.237-0.093l-0 0v-0.229h-0.252v0.098zM27.972 25.226h-0.118v0.582h0.407v-0.099h-0.289v-0.483zM29.206 25.226h-0.117v0.582h0.117v-0.582zM30.413 25.615l-0.238-0.388h-0.114v0.582h0.109v-0.38l0.234 0.38h0.117v-0.582h-0.108v0.389zM31.504 25.552h0.29v-0.099h-0.29v-0.127h0.312v-0.099h-0.429v0.582h0.441v-0.099h-0.324v-0.157zM34.15 25.456h-0.229v-0.229h-0.116v0.581h0.116v-0.255h0.229v0.255h0.117v-0.582h-0.117v0.229zM35.247 25.552h0.291v-0.099h-0.291v-0.127h0.313v-0.099h-0.429v0.582h0.441v-0.099h-0.324v-0.157zM36.736 25.552c0.101-0.016 0.153-0.069 0.153-0.162 0.001-0.005 0.001-0.011 0.001-0.017 0-0.046-0.023-0.087-0.058-0.112l-0-0c-0.043-0.022-0.094-0.035-0.147-0.035-0.008 0-0.016 0-0.024 0.001l0.001-0h-0.247v0.581h0.117v-0.243h0.023c0.003-0 0.006-0 0.009-0 0.023 0 0.045 0.005 0.064 0.014l-0.001-0c0.017 0.011 0.031 0.025 0.041 0.043l0.127 0.185h0.14l-0.071-0.113c-0.032-0.057-0.075-0.104-0.127-0.139l-0.001-0.001zM36.618 25.471h-0.086v-0.146h0.092c0.007-0.001 0.016-0.001 0.025-0.001 0.034 0 0.066 0.005 0.096 0.015l-0.002-0.001c0.016 0.014 0.025 0.035 0.025 0.057 0 0.013-0.003 0.025-0.009 0.036l0-0c-0.006 0.010-0.013 0.019-0.022 0.025l-0 0c-0.029 0.009-0.063 0.015-0.097 0.015-0.008 0-0.015-0-0.023-0.001l0.001 0zM37.858 25.552h0.289v-0.099h-0.289v-0.127h0.313v-0.099h-0.431v0.582h0.441v-0.099h-0.324v-0.157z"></path>
</symbol>
<symbol id="icon-lient3" viewBox="0 0 61 32">
<path fill="#8e8f99" style="fill: var(--color4, #8e8f99)" d="M25.022 23.717c0.006 0 0.012 0.001 0.017 0.004s0.010 0.005 0.015 0.008l-0-0 0.080 0.076c-0.063 0.061-0.138 0.109-0.221 0.142l-0.005 0.002c-0.102 0.036-0.211 0.054-0.32 0.051-0.005 0-0.011 0-0.016 0-0.102 0-0.2-0.018-0.291-0.050l0.006 0.002c-0.088-0.031-0.163-0.078-0.227-0.136l0 0c-0.062-0.057-0.111-0.127-0.145-0.205l-0.002-0.004c-0.032-0.077-0.051-0.167-0.051-0.261 0-0.003 0-0.005 0-0.008v0c-0-0.003-0-0.006-0-0.009 0-0.094 0.020-0.184 0.057-0.265l-0.002 0.004c0.035-0.078 0.088-0.149 0.155-0.209 0.068-0.058 0.148-0.105 0.236-0.135l0.005-0.002c0.090-0.030 0.193-0.048 0.3-0.048 0.004 0 0.007 0 0.011 0h-0.001c0.098-0.002 0.196 0.013 0.288 0.044 0.080 0.030 0.153 0.071 0.216 0.121l-0.067 0.081c-0.005 0.006-0.010 0.011-0.017 0.014l-0 0c-0.007 0.004-0.015 0.006-0.023 0.006-0.001 0-0.003-0-0.004-0h0c-0.011-0.001-0.021-0.004-0.029-0.009l0 0-0.036-0.021-0.050-0.027c-0.046-0.022-0.099-0.039-0.155-0.048l-0.003-0c-0.033-0.005-0.071-0.008-0.11-0.008-0.004 0-0.007 0-0.011 0h0.001c-0.002-0-0.005-0-0.008-0-0.077 0-0.151 0.013-0.22 0.037l0.005-0.001c-0.067 0.023-0.126 0.058-0.175 0.102l0.001-0c-0.050 0.047-0.089 0.102-0.113 0.161-0.026 0.061-0.041 0.131-0.041 0.206 0 0.003 0 0.005 0 0.007v-0c-0 0.002-0 0.005-0 0.008 0 0.075 0.015 0.146 0.043 0.211l-0.001-0.004c0.052 0.123 0.151 0.217 0.275 0.259l0.003 0.001c0.065 0.023 0.136 0.035 0.207 0.034 0.041 0.001 0.082-0.002 0.123-0.007 0.102-0.010 0.193-0.050 0.266-0.111l-0.001 0.001c0.010-0.008 0.024-0.013 0.038-0.014h0zM27.34 23.338c0.001 0.091-0.017 0.182-0.054 0.267-0.036 0.082-0.087 0.151-0.151 0.207l-0.001 0.001c-0.067 0.059-0.148 0.105-0.237 0.136-0.091 0.030-0.196 0.048-0.305 0.048s-0.214-0.018-0.312-0.050l0.007 0.002c-0.091-0.032-0.17-0.078-0.237-0.137l0.001 0.001c-0.064-0.057-0.116-0.127-0.151-0.205l-0.002-0.004c-0.034-0.079-0.054-0.171-0.054-0.267s0.020-0.188 0.056-0.272l-0.002 0.004c0.035-0.078 0.086-0.149 0.153-0.21 0.067-0.057 0.148-0.102 0.236-0.131 0.196-0.065 0.414-0.065 0.61 0 0.089 0.031 0.17 0.077 0.237 0.136 0.127 0.113 0.206 0.277 0.206 0.459 0 0.006-0 0.011-0 0.017l0-0.001zM27.129 23.338c0.002-0.073-0.011-0.145-0.038-0.215-0.049-0.125-0.149-0.22-0.274-0.261l-0.003-0.001c-0.066-0.022-0.143-0.035-0.222-0.035s-0.156 0.013-0.227 0.037l0.005-0.001c-0.066 0.023-0.123 0.058-0.17 0.102l0-0c-0.047 0.044-0.084 0.097-0.107 0.157l-0.001 0.003c-0.051 0.14-0.051 0.289 0 0.429 0.023 0.059 0.060 0.114 0.108 0.16 0.047 0.044 0.105 0.078 0.17 0.1 0.143 0.046 0.3 0.046 0.444 0 0.064-0.022 0.123-0.056 0.169-0.1 0.048-0.047 0.085-0.101 0.108-0.16 0.027-0.069 0.040-0.142 0.038-0.215zM28.923 23.563l0.021 0.048c0.008-0.017 0.015-0.033 0.023-0.048 0.008-0.016 0.016-0.032 0.026-0.047l0.513-0.796c0.010-0.014 0.019-0.023 0.029-0.025s0.022-0.004 0.034-0.004c0.003 0 0.006 0 0.008 0l-0-0h0.152v1.296h-0.18v-0.993c-0-0.007-0.001-0.015-0.001-0.022s0-0.016 0.001-0.023l-0 0.001-0.516 0.808c-0.007 0.013-0.017 0.023-0.030 0.029l-0 0c-0.013 0.007-0.027 0.011-0.043 0.011-0 0-0 0-0.001 0h-0.029c-0 0-0.001 0-0.001 0-0.016 0-0.031-0.004-0.044-0.011l0 0c-0.013-0.007-0.023-0.017-0.030-0.029l-0-0-0.531-0.813v1.040h-0.174v-1.293h0.152c0.002-0 0.004-0 0.006-0 0.013 0 0.025 0.002 0.036 0.005l-0.001-0c0.012 0.005 0.022 0.014 0.028 0.024l0 0 0.524 0.797c0.011 0.015 0.019 0.030 0.027 0.047zM30.853 23.499v0.485h-0.201v-1.294h0.447c0.085-0.001 0.169 0.008 0.25 0.028 0.065 0.016 0.125 0.043 0.177 0.080 0.043 0.033 0.077 0.076 0.099 0.125l0.001 0.002c0.024 0.053 0.035 0.109 0.034 0.165 0 0.002 0 0.004 0 0.006 0 0.118-0.057 0.223-0.145 0.288l-0.001 0.001c-0.051 0.038-0.11 0.068-0.175 0.085l-0.004 0.001c-0.078 0.021-0.16 0.031-0.241 0.030l-0.243-0.004zM30.853 23.36h0.243c0.053 0 0.105-0.006 0.155-0.020 0.043-0.012 0.081-0.031 0.114-0.056l-0.001 0.001c0.056-0.045 0.092-0.114 0.092-0.192 0-0.001 0-0.002-0-0.003v0c0-0.004 0-0.009 0-0.013 0-0.034-0.008-0.065-0.021-0.094l0.001 0.001c-0.017-0.035-0.041-0.065-0.070-0.088l-0-0c-0.067-0.044-0.15-0.071-0.238-0.071-0.011 0-0.022 0-0.033 0.001l0.001-0h-0.243v0.533zM33.551 23.986h-0.159c-0.001 0-0.002 0-0.003 0-0.015 0-0.030-0.005-0.041-0.012l0 0c-0.011-0.008-0.020-0.018-0.026-0.029l-0-0-0.136-0.313h-0.686l-0.141 0.313c-0.006 0.012-0.014 0.022-0.025 0.029l-0 0c-0.012 0.008-0.027 0.013-0.043 0.013-0.001 0-0.002 0-0.002-0h-0.158l0.602-1.296h0.209l0.61 1.296zM32.557 23.505h0.566l-0.239-0.527c-0.016-0.034-0.032-0.074-0.044-0.116l-0.002-0.006-0.023 0.068c-0.007 0.021-0.015 0.039-0.022 0.055l-0.237 0.527zM34.418 22.696c0.012 0.006 0.022 0.014 0.030 0.023l0 0 0.879 0.977v-1.006h0.18v1.296h-0.1c-0.001 0-0.003 0-0.004 0-0.014 0-0.026-0.003-0.038-0.008l0.001 0c-0.012-0.006-0.023-0.015-0.032-0.024l-0-0-0.877-0.976c0 0.007 0.001 0.015 0.001 0.022s-0 0.016-0.001 0.023l0-0.001v0.963h-0.18v-1.296h0.106c0.012-0 0.025 0.001 0.036 0.006zM36.985 23.471v0.515h-0.201v-0.515l-0.555-0.78h0.18c0.001-0 0.003-0 0.005-0 0.014 0 0.028 0.004 0.039 0.011l-0-0c0.011 0.008 0.020 0.018 0.027 0.029l0.347 0.504c0.023 0.033 0.043 0.071 0.060 0.111l0.002 0.004 0.026-0.056c0.010-0.020 0.021-0.040 0.034-0.059l0.343-0.507c0.007-0.011 0.016-0.020 0.026-0.027l0-0c0.011-0.008 0.025-0.013 0.040-0.013 0.001 0 0.002 0 0.003 0h0.182l-0.556 0.784zM28.823 20.515c0.087 0.009 0.176 0.017 0.265 0.024 1.354-0.517 2.5-1.365 3.294-2.436s1.201-2.318 1.169-3.585l-1.492-1.275c0.303 1.349 0.161 2.744-0.41 4.029s-1.55 2.407-2.826 3.244z"></path>
<path fill="#8e8f99" style="fill: var(--color4, #8e8f99)" d="M28.29 20.456l0.040 0.007c1.364-0.833 2.404-1.997 2.985-3.341s0.677-2.805 0.276-4.196l-2.126-1.816c0.86 1.493 1.206 3.164 0.998 4.818s-0.961 3.225-2.173 4.528zM35.5 16.015c-0.361 1.393-1.239 2.649-2.501 3.582-0.344 0.258-0.733 0.5-1.143 0.708l-0.045 0.021c1.028-0.258 1.974-0.715 2.763-1.335s1.401-1.386 1.789-2.24l-0.862-0.736z"></path>
<path fill="#8e8f99" style="fill: var(--color4, #8e8f99)" d="M35.162 15.81l-1.228-1.049c-0.024 1.196-0.421 2.364-1.152 3.384s-1.768 1.854-3.004 2.416h0.006c0.275 0 0.551-0.014 0.824-0.042 1.155-0.403 2.175-1.044 2.97-1.865s1.339-1.799 1.584-2.844zM28.468 10.344l-1.464-1.253c-1.309 0.432-2.435 1.192-3.231 2.18s-1.223 2.159-1.227 3.357c0.005 1.325 0.527 2.611 1.484 3.654s2.293 1.784 3.797 2.105c1.343-1.399 2.13-3.126 2.245-4.932s-0.447-3.596-1.604-5.111zM38.545 15.617c-0.005-1.572-0.739-3.079-2.040-4.19s-3.064-1.738-4.904-1.743c-0.005 0-0.010 0-0.016 0-0.883 0-1.733 0.145-2.526 0.412l0.056-0.016 8.967 7.661c0.292-0.623 0.463-1.353 0.464-2.123v-0z"></path>
</symbol>
<symbol id="icon-lient4" viewBox="0 0 61 32">
<path fill="#8e8f99" style="fill: var(--color4, #8e8f99)" d="M20.392 13.643h-0.001c-0.867 0-1.571 0.634-1.571 1.416v0.001c0 0.782 0.704 1.416 1.571 1.416h0.001c0.868 0 1.571-0.634 1.571-1.416v-0.001c0-0.782-0.703-1.416-1.571-1.416zM31.986 13.19c-0.002-1.087-0.482-2.127-1.334-2.896s-2.007-1.201-3.212-1.203c-1.205 0.002-2.36 0.435-3.213 1.203s-1.332 1.81-1.335 2.896v5.991s9.092-0.913 9.093-5.989v-0.001zM15.636 21.147c0.002 0.756 0.336 1.48 0.929 2.015s1.396 0.836 2.235 0.838c0.838-0.002 1.641-0.303 2.234-0.838s0.927-1.258 0.929-2.015v-4.168s-6.327 0.635-6.327 4.167zM18.8 21.894c-0.164 0-0.324-0.044-0.46-0.126-0.133-0.079-0.238-0.194-0.303-0.331l-0.002-0.005c-0.040-0.084-0.063-0.182-0.063-0.286 0-0.052 0.006-0.102 0.017-0.15l-0.001 0.005c0.036-0.153 0.116-0.284 0.226-0.382l0.001-0.001c0.115-0.103 0.26-0.175 0.419-0.204l0.005-0.001c0.16-0.029 0.327-0.014 0.479 0.043s0.281 0.152 0.372 0.275c0.091 0.123 0.14 0.267 0.14 0.415 0 0.098-0.021 0.196-0.062 0.287s-0.103 0.173-0.179 0.243c-0.076 0.068-0.165 0.123-0.263 0.161l-0.006 0.002c-0.094 0.036-0.203 0.057-0.317 0.057-0 0-0.001 0-0.001 0h0v-0.003zM24.585 20.551v1.551h-0.32v-1.551h0.32zM25.203 21.213v0.249h-0.705v-0.249h0.705zM25.277 20.551v0.25h-0.779v-0.25h0.78zM26.737 21.29v0.073c0 0.118-0.016 0.224-0.048 0.317-0.031 0.093-0.077 0.173-0.136 0.241l0.001-0.001c-0.058 0.065-0.128 0.115-0.209 0.15-0.076 0.033-0.165 0.052-0.258 0.052-0.003 0-0.007-0-0.010-0h0c-0.097 0-0.186-0.017-0.267-0.052-0.082-0.036-0.152-0.087-0.208-0.15l-0-0.001c-0.059-0.067-0.106-0.147-0.136-0.235l-0.001-0.005c-0.030-0.091-0.048-0.195-0.048-0.303 0-0.005 0-0.010 0-0.015v0.001-0.073c0-0.119 0.016-0.224 0.048-0.317 0.031-0.092 0.077-0.172 0.136-0.241l-0.001 0.001c0.059-0.066 0.128-0.116 0.209-0.151s0.17-0.052 0.268-0.052c0.098 0 0.187 0.017 0.267 0.052s0.151 0.085 0.209 0.151c0.059 0.066 0.104 0.146 0.136 0.24 0.033 0.093 0.049 0.199 0.049 0.317zM26.414 21.364v-0.076c0-0.082-0.007-0.155-0.022-0.217-0.013-0.060-0.036-0.113-0.067-0.16l0.001 0.002c-0.027-0.040-0.063-0.073-0.105-0.095l-0.002-0.001c-0.040-0.021-0.087-0.033-0.137-0.033-0.002 0-0.004 0-0.006 0h0c-0.054 0-0.102 0.011-0.144 0.033-0.043 0.023-0.079 0.056-0.105 0.095l-0.001 0.001c-0.029 0.045-0.052 0.098-0.064 0.155l-0.001 0.003c-0.014 0.061-0.022 0.131-0.022 0.204 0 0.005 0 0.010 0 0.014v-0.001 0.076c0 0.082 0.007 0.154 0.022 0.217s0.037 0.115 0.066 0.159c0.029 0.043 0.065 0.075 0.107 0.097s0.090 0.033 0.144 0.033c0.054 0 0.102-0.011 0.144-0.033 0.043-0.023 0.079-0.056 0.105-0.096l0.001-0.001c0.028-0.044 0.050-0.096 0.065-0.159 0.014-0.061 0.022-0.132 0.022-0.204 0-0.005-0-0.009-0-0.014v0.001zM27.775 21.696c0-0.001 0-0.002 0-0.003 0-0.026-0.005-0.050-0.013-0.073l0 0.001c-0.009-0.025-0.025-0.046-0.044-0.062l-0-0c-0.027-0.022-0.057-0.041-0.090-0.055l-0.003-0.001c-0.041-0.019-0.092-0.039-0.145-0.055l-0.009-0.002c-0.082-0.026-0.148-0.052-0.213-0.082l0.012 0.005c-0.063-0.029-0.118-0.062-0.168-0.1l0.002 0.001c-0.046-0.037-0.083-0.081-0.112-0.131l-0.001-0.002c-0.026-0.049-0.041-0.107-0.041-0.168 0-0.003 0-0.005 0-0.008v0c-0-0.001-0-0.003-0-0.005 0-0.063 0.016-0.121 0.044-0.173l-0.001 0.002c0.028-0.053 0.068-0.099 0.119-0.136 0.051-0.039 0.112-0.068 0.181-0.089 0.071-0.020 0.147-0.031 0.231-0.031 0.114 0 0.214 0.021 0.299 0.062s0.151 0.098 0.198 0.169c0.047 0.072 0.071 0.154 0.071 0.246h-0.317c0-0.002 0-0.004 0-0.005 0-0.042-0.011-0.081-0.029-0.115l0.001 0.001c-0.019-0.036-0.049-0.064-0.084-0.082l-0.001-0c-0.038-0.019-0.084-0.030-0.132-0.030-0.004 0-0.008 0-0.012 0l0.001-0c-0.003-0-0.007-0-0.011-0-0.046 0-0.090 0.009-0.13 0.026l0.002-0.001c-0.035 0.014-0.063 0.037-0.083 0.067l-0 0.001c-0.017 0.026-0.027 0.057-0.027 0.091 0 0.001 0 0.002 0 0.003v-0c0 0.026 0.006 0.050 0.019 0.071 0.016 0.024 0.036 0.044 0.059 0.059l0.001 0c0.026 0.019 0.058 0.036 0.097 0.052s0.083 0.032 0.133 0.048c0.085 0.025 0.159 0.054 0.223 0.086s0.119 0.068 0.162 0.108c0.044 0.040 0.076 0.085 0.098 0.135s0.033 0.108 0.033 0.172c0 0.004 0 0.010 0 0.015 0 0.123-0.060 0.233-0.153 0.301l-0.001 0.001c-0.049 0.037-0.109 0.065-0.178 0.084s-0.146 0.029-0.231 0.029c-0.076 0-0.152-0.010-0.227-0.030-0.077-0.021-0.145-0.053-0.206-0.094l0.002 0.002c-0.060-0.041-0.108-0.094-0.144-0.155l-0.001-0.002c-0.036-0.064-0.054-0.14-0.054-0.227h0.321c0 0.048 0.007 0.089 0.022 0.123s0.036 0.060 0.062 0.080l0 0c0.028 0.020 0.061 0.036 0.096 0.044l0.002 0c0.038 0.009 0.080 0.014 0.125 0.014 0.004 0 0.008 0 0.012 0 0.045 0 0.088-0.009 0.127-0.024l-0.002 0.001c0.063-0.025 0.107-0.086 0.107-0.157 0-0.001 0-0.002-0-0.002v0zM29.005 20.551v1.551h-0.319v-1.551h0.319zM29.483 20.551v0.25h-1.265v-0.25h1.265zM30.705 21.853v0.249h-0.825v-0.249h0.825zM29.984 20.551v1.551h-0.32v-1.551h0.32zM30.598 21.183v0.243h-0.718v-0.243h0.718zM30.704 20.551v0.25h-0.825v-0.25h0.825zM30.892 20.551h0.578c0.119 0 0.221 0.018 0.306 0.053 0.086 0.036 0.152 0.088 0.198 0.158s0.069 0.155 0.069 0.257c0 0.083-0.014 0.155-0.043 0.214s-0.068 0.109-0.117 0.147l-0.001 0.001c-0.051 0.039-0.11 0.071-0.174 0.093l-0.004 0.001-0.101 0.053h-0.503l-0.002-0.249h0.374c0.003 0 0.007 0 0.011 0 0.047 0 0.091-0.011 0.131-0.031l-0.002 0.001c0.036-0.019 0.064-0.047 0.083-0.082l0-0.001c0.018-0.034 0.029-0.075 0.029-0.118 0-0.002-0-0.004-0-0.006v0c0-0.002 0-0.005 0-0.007 0-0.044-0.010-0.086-0.028-0.123l0.001 0.002c-0.019-0.036-0.048-0.065-0.083-0.082l-0.001-0c-0.039-0.018-0.084-0.029-0.132-0.029-0.004 0-0.007 0-0.011 0h-0.258v1.301h-0.319v-1.551zM31.759 22.102l-0.353-0.692 0.337-0.002 0.358 0.679v0.015h-0.342zM33.437 21.549h-0.395v-0.249h0.395c0.004 0 0.008 0 0.013 0 0.050 0 0.096-0.011 0.138-0.031l-0.002 0.001c0.037-0.019 0.065-0.049 0.084-0.084l0.001-0.001c0.017-0.037 0.026-0.080 0.026-0.126s-0.010-0.089-0.027-0.128l0.001 0.002c-0.018-0.040-0.047-0.073-0.083-0.095l-0.001-0.001c-0.039-0.023-0.087-0.037-0.137-0.037-0.004 0-0.008 0-0.012 0l0.001-0h-0.285v1.301h-0.32v-1.551h0.604c0.121 0 0.225 0.022 0.312 0.066 0.087 0.043 0.154 0.103 0.2 0.18s0.069 0.164 0.069 0.263c0 0.1-0.023 0.187-0.069 0.26s-0.113 0.13-0.2 0.169c-0.087 0.040-0.191 0.060-0.313 0.060zM35.28 21.853v0.249h-0.825v-0.249h0.825zM34.559 20.551v1.551h-0.32v-1.551h0.32zM35.172 21.183v0.243h-0.718v-0.243h0.718zM35.279 20.551v0.25h-0.824v-0.25h0.824zM36.181 20.551v1.551h-0.319v-1.551h0.319zM36.659 20.551v0.25h-1.265v-0.25h1.265zM37.881 21.853v0.249h-0.825v-0.249h0.825zM37.16 20.551v1.551h-0.32v-1.551h0.32zM37.774 21.183v0.243h-0.718v-0.243h0.718zM37.88 20.551v0.25h-0.824v-0.25h0.824zM38.068 20.551h0.579c0.119 0 0.22 0.018 0.306 0.053s0.152 0.088 0.198 0.158 0.069 0.155 0.069 0.257c0 0.083-0.014 0.155-0.043 0.214s-0.068 0.109-0.117 0.147l-0.001 0.001c-0.051 0.039-0.11 0.071-0.174 0.093l-0.004 0.001-0.101 0.053h-0.503l-0.002-0.249h0.374c0.003 0 0.007 0 0.011 0 0.047 0 0.091-0.011 0.13-0.031l-0.002 0.001c0.036-0.019 0.064-0.047 0.083-0.082l0.001-0.001c0.018-0.034 0.029-0.075 0.029-0.118 0-0.002-0-0.004-0-0.006v0c0-0.002 0-0.005 0-0.007 0-0.044-0.010-0.086-0.028-0.123l0.001 0.002c-0.019-0.036-0.048-0.065-0.083-0.082l-0.001-0c-0.038-0.018-0.084-0.029-0.131-0.029-0.004 0-0.007 0-0.011 0h-0.258v1.301h-0.32v-1.551zM38.935 22.102l-0.354-0.692 0.338-0.002 0.358 0.679v0.015h-0.342zM40.273 21.696c0-0.001 0-0.003 0-0.004 0-0.025-0.005-0.050-0.013-0.072l0 0.001c-0.009-0.025-0.025-0.046-0.044-0.062l-0-0c-0.027-0.022-0.057-0.041-0.090-0.055l-0.002-0.001c-0.041-0.019-0.092-0.039-0.145-0.055l-0.009-0.002c-0.082-0.026-0.148-0.052-0.212-0.082l0.012 0.005c-0.063-0.029-0.118-0.062-0.168-0.1l0.002 0.001c-0.046-0.037-0.084-0.081-0.112-0.131l-0.001-0.002c-0.026-0.049-0.040-0.106-0.040-0.168 0-0.003 0-0.006 0-0.008v0c0-0.065 0.014-0.123 0.043-0.176 0.030-0.055 0.070-0.1 0.118-0.136l0.001-0.001c0.051-0.039 0.112-0.068 0.181-0.089 0.067-0.020 0.144-0.031 0.223-0.031 0.003 0 0.006 0 0.008 0h-0c0.114 0 0.214 0.021 0.299 0.062s0.151 0.098 0.198 0.169c0.048 0.072 0.071 0.154 0.071 0.246h-0.317c0-0.002 0-0.004 0-0.006 0-0.042-0.011-0.081-0.029-0.115l0.001 0.001c-0.019-0.036-0.049-0.064-0.084-0.082l-0.001-0c-0.038-0.019-0.084-0.030-0.132-0.030-0.004 0-0.008 0-0.012 0l0.001-0c-0.003-0-0.007-0-0.011-0-0.046 0-0.090 0.009-0.13 0.026l0.002-0.001c-0.034 0.014-0.062 0.037-0.083 0.067l-0 0.001c-0.017 0.026-0.028 0.057-0.028 0.091 0 0.001 0 0.002 0 0.003v-0c0 0.026 0.006 0.050 0.019 0.071 0.016 0.024 0.036 0.044 0.059 0.059l0.001 0c0.026 0.019 0.059 0.036 0.097 0.052s0.083 0.032 0.133 0.048c0.085 0.025 0.159 0.054 0.223 0.086s0.119 0.068 0.162 0.108 0.076 0.085 0.098 0.135c0.022 0.051 0.033 0.108 0.033 0.172 0 0.067-0.013 0.128-0.039 0.181-0.027 0.055-0.066 0.1-0.113 0.135l-0.001 0.001c-0.051 0.037-0.11 0.066-0.174 0.083l-0.004 0.001c-0.069 0.019-0.146 0.029-0.231 0.029-0.076 0-0.152-0.010-0.227-0.030-0.077-0.021-0.145-0.053-0.206-0.094l0.002 0.002c-0.060-0.041-0.109-0.094-0.144-0.155l-0.001-0.002c-0.034-0.062-0.054-0.137-0.054-0.216 0-0.004 0-0.008 0-0.012v0.001h0.321c0 0.048 0.007 0.089 0.022 0.123s0.036 0.060 0.062 0.080l0 0c0.028 0.020 0.061 0.036 0.096 0.044l0.002 0c0.038 0.009 0.080 0.014 0.125 0.014 0.004 0 0.008 0 0.012 0 0.045 0 0.087-0.009 0.126-0.024l-0.002 0.001c0.063-0.025 0.107-0.086 0.107-0.156 0-0.001 0-0.002-0-0.003v0z"></path>
</symbol>
<symbol id="icon-lient5" viewBox="0 0 61 32">
<path fill="#8e8f99" style="fill: var(--color4, #8e8f99)" d="M21.379 21.954c0.089 0.1 0.137 0.224 0.135 0.352 0.004 0.083-0.012 0.167-0.048 0.244s-0.091 0.145-0.16 0.201c-0.152 0.103-0.34 0.164-0.541 0.164-0.022 0-0.045-0.001-0.067-0.002l0.003 0h-1.064v-2.23h1.042c0.018-0.001 0.040-0.002 0.061-0.002 0.191 0 0.37 0.056 0.52 0.152l-0.004-0.002c0.068 0.051 0.121 0.115 0.156 0.187s0.051 0.151 0.047 0.23c0.006 0.123-0.037 0.244-0.121 0.341-0.082 0.088-0.191 0.15-0.313 0.174l-0.004 0.001c0.141 0.023 0.268 0.091 0.359 0.191zM20.131 21.617h0.445c0.101 0.007 0.201-0.019 0.283-0.074 0.033-0.026 0.058-0.059 0.076-0.097l0.001-0.002c0.013-0.029 0.020-0.062 0.020-0.097 0-0.008-0-0.016-0.001-0.023l0 0.001c0-0.006 0.001-0.012 0.001-0.019 0-0.036-0.008-0.070-0.021-0.101l0.001 0.002c-0.017-0.040-0.043-0.073-0.074-0.099l-0-0c-0.072-0.048-0.16-0.076-0.255-0.076-0.013 0-0.025 0-0.038 0.002l0.002-0h-0.439v0.585zM20.903 22.472c0.035-0.027 0.063-0.061 0.081-0.101l0.001-0.002c0.015-0.031 0.024-0.068 0.024-0.107 0-0.006-0-0.012-0.001-0.018l0 0.001c0-0.005 0-0.010 0-0.016 0-0.040-0.009-0.078-0.026-0.112l0.001 0.002c-0.020-0.041-0.048-0.076-0.083-0.102l-0.001-0c-0.077-0.051-0.171-0.082-0.273-0.082-0.010 0-0.021 0-0.031 0.001l0.001-0h-0.468v0.613h0.473c0.107 0.005 0.212-0.022 0.299-0.077zM23.509 22.913l-0.58-0.872h-0.218v0.871h-0.498v-2.23h0.944c0.020-0.001 0.044-0.002 0.068-0.002 0.221 0 0.426 0.072 0.592 0.194l-0.003-0.002c0.132 0.121 0.212 0.281 0.224 0.45s-0.042 0.337-0.154 0.473c-0.116 0.12-0.275 0.2-0.45 0.227l0.617 0.891h-0.542zM22.711 21.737h0.408c0.283 0 0.425-0.113 0.425-0.338 0-0.005 0.001-0.012 0.001-0.018 0-0.042-0.009-0.082-0.024-0.119l0.001 0.002c-0.019-0.045-0.047-0.084-0.081-0.115l-0-0c-0.078-0.057-0.175-0.092-0.281-0.092-0.014 0-0.028 0.001-0.042 0.002l0.002-0h-0.413l0.005 0.679zM26.234 22.464h-0.994l-0.176 0.449h-0.523l0.913-2.205h0.565l0.909 2.205h-0.523l-0.172-0.449zM26.101 22.126l-0.363-0.941-0.363 0.941h0.726zM29.645 22.913h-0.495l-1.11-1.516v1.516h-0.494v-2.23h0.494l1.109 1.525v-1.525h0.495v2.23zM32.469 22.379c-0.108 0.172-0.26 0.307-0.441 0.391l-0.006 0.003c-0.215 0.098-0.455 0.146-0.696 0.14h-0.881v-2.23h0.881c0.012-0 0.027-0.001 0.041-0.001 0.237 0 0.462 0.051 0.665 0.142l-0.010-0.004c0.189 0.086 0.345 0.222 0.448 0.389 0.102 0.181 0.155 0.382 0.155 0.585-0.001 0.215-0.058 0.417-0.158 0.591l0.003-0.006zM31.903 22.325c0.134-0.137 0.217-0.325 0.219-0.532v-0c-0.002-0.207-0.085-0.395-0.219-0.532l0 0c-0.154-0.119-0.35-0.192-0.563-0.192-0.020 0-0.040 0.001-0.060 0.002l0.003-0h-0.344v1.444h0.344c0.017 0.001 0.037 0.002 0.057 0.002 0.213 0 0.408-0.072 0.564-0.193l-0.002 0.002zM26.544 8.279s6.388 2.171 6.252 5.313v5.314s-6.383-2.172-6.251-5.314l-0.003-5.313zM38.487 17.662c1.207-0.748 2.602-1.211 4.059-1.347v-1.664c-1.679 0.583-3.102 1.638-4.059 3.010z"></path>
<path fill="#8e8f99" style="fill: var(--color4, #8e8f99)" d="M37.762 18.163c0.987-1.79 2.699-3.171 4.783-3.86v-4.793s-9.097 3.093-8.905 7.567v7.566s0.405-0.138 1.043-0.398c0-0.242 0-0.486 0.029-0.731 0.188-2.077 1.285-4.002 3.049-5.351z"></path>
<path fill="#8e8f99" style="fill: var(--color4, #8e8f99)" d="M36.897 20.973c0.048-0.525 0.155-1.044 0.319-1.549-1.099 1.165-1.764 2.611-1.903 4.134-0.013 0.144-0.020 0.287-0.024 0.436 0.762-0.328 1.337-0.605 1.901-0.902l-0.151 0.072c-0.109-0.465-0.171-0.998-0.171-1.546 0-0.227 0.011-0.452 0.032-0.673l-0.002 0.028zM37.259 21.001c-0.018 0.184-0.028 0.397-0.028 0.613 0 0.485 0.051 0.959 0.148 1.415l-0.008-0.044c2.485-1.339 5.278-3.407 5.171-5.908v-0.218c-1.776 0.179-3.437 0.878-4.729 1.989-0.285 0.629-0.482 1.359-0.552 2.126l-0.002 0.027z"></path>
</symbol>
<symbol id="icon-lient6" viewBox="0 0 61 32">
<path fill="#8e8f99" style="fill: var(--color4, #8e8f99)" d="M31.102 15.797c-0.139-0.179-0.223-0.407-0.223-0.655 0-0.024 0.001-0.049 0.002-0.073l-0 0.003v-1.050c0-0.322 0.073-0.567 0.219-0.734s0.397-0.251 0.753-0.25c0.335 0 0.572 0.071 0.712 0.214 0.153 0.182 0.227 0.404 0.21 0.628v0.247h-0.598v-0.25c0.002-0.082-0.004-0.164-0.017-0.245-0.010-0.059-0.041-0.11-0.085-0.145l-0-0c-0.054-0.036-0.12-0.057-0.191-0.057-0.009 0-0.018 0-0.027 0.001l0.001-0c-0.008-0.001-0.017-0.001-0.026-0.001-0.075 0-0.145 0.023-0.203 0.061l0.001-0.001c-0.049 0.040-0.085 0.095-0.099 0.158l-0 0.002c-0.015 0.072-0.024 0.155-0.024 0.239 0 0.007 0 0.014 0 0.022v-0.001 1.275c-0.001 0.014-0.002 0.031-0.002 0.048 0 0.114 0.029 0.22 0.080 0.313l-0.002-0.003c0.031 0.038 0.071 0.068 0.117 0.086l0.002 0.001c0.048 0.019 0.102 0.025 0.155 0.020 0.076 0.005 0.153-0.015 0.212-0.058 0.046-0.039 0.078-0.092 0.089-0.153l0-0.002c0.014-0.084 0.020-0.17 0.019-0.255v-0.259h0.598v0.236c0.001 0.019 0.002 0.040 0.002 0.062 0 0.227-0.079 0.435-0.21 0.6l0.001-0.002c-0.137 0.156-0.371 0.234-0.716 0.234s-0.604-0.083-0.752-0.256zM33.591 15.808c-0.151-0.164-0.227-0.402-0.227-0.717v-1.105c0-0.312 0.076-0.548 0.227-0.708s0.404-0.24 0.758-0.239c0.352 0 0.603 0.080 0.754 0.239 0.151 0.16 0.228 0.396 0.228 0.708v1.105c0 0.312-0.077 0.551-0.23 0.716s-0.404 0.247-0.752 0.247-0.605-0.083-0.758-0.245zM34.628 15.543c0.054-0.103 0.079-0.215 0.072-0.327v-1.353c0.001-0.011 0.001-0.023 0.001-0.035 0-0.104-0.027-0.203-0.074-0.288l0.002 0.003c-0.032-0.039-0.073-0.070-0.12-0.088l-0.002-0.001c-0.035-0.014-0.075-0.021-0.117-0.021-0.014 0-0.029 0.001-0.042 0.003l0.002-0c-0.012-0.002-0.026-0.002-0.041-0.002-0.042 0-0.083 0.008-0.12 0.022l0.002-0.001c-0.049 0.019-0.091 0.049-0.123 0.088l-0 0.001c-0.055 0.1-0.079 0.21-0.072 0.321v1.359c-0.008 0.112 0.017 0.224 0.072 0.327 0.035 0.034 0.078 0.062 0.126 0.081 0.046 0.018 0.098 0.029 0.154 0.029s0.108-0.011 0.157-0.030l-0.003 0.001c0.048-0.019 0.091-0.047 0.126-0.081v-0.007zM36.050 13.071h0.644l0.484 2.038 0.495-2.038h0.627l0.063 2.942h-0.463l-0.049-2.044-0.478 2.044h-0.371l-0.495-2.052-0.046 2.052h-0.468l0.058-2.942zM39.085 13.071h1.003c0.577 0 0.867 0.279 0.867 0.835 0 0.533-0.304 0.8-0.912 0.799h-0.342v1.307h-0.619l0.004-2.942zM39.941 14.329c0.061 0.007 0.123 0.002 0.182-0.015s0.113-0.043 0.158-0.079c0.071-0.099 0.102-0.216 0.089-0.332 0-0.010 0.001-0.022 0.001-0.034 0-0.083-0.011-0.163-0.032-0.24l0.001 0.006c-0.010-0.031-0.026-0.058-0.046-0.081l0 0c-0.022-0.024-0.048-0.044-0.077-0.059l-0.001-0.001c-0.072-0.030-0.155-0.048-0.243-0.048-0.012 0-0.023 0-0.035 0.001l0.002-0h-0.24v0.879h0.24zM41.847 13.071h0.665l0.682 2.942h-0.577l-0.135-0.678h-0.593l-0.139 0.678h-0.585l0.682-2.942zM42.415 14.994l-0.231-1.235-0.232 1.235h0.463zM43.745 13.071h0.433l0.829 1.678v-1.678h0.514v2.942h-0.412l-0.835-1.752v1.752h-0.531l0.001-2.942zM46.725 14.892l-0.689-1.816h0.581l0.421 1.167 0.395-1.167h0.568l-0.681 1.816v1.121h-0.594v-1.121zM32.057 17.3v0.154h-0.505v1.195h-0.211v-1.195h-0.508v-0.154h1.224zM33.641 18.649h-0.164c-0.001 0-0.003 0-0.004 0-0.015 0-0.030-0.005-0.041-0.013l0 0c-0.012-0.007-0.021-0.018-0.027-0.030l-0-0-0.146-0.32h-0.701l-0.146 0.32c-0.004 0.014-0.012 0.026-0.022 0.036v0c-0.012 0.008-0.026 0.013-0.042 0.013-0.001 0-0.003-0-0.004-0h-0.163l0.619-1.349h0.216l0.626 1.344zM32.616 18.148h0.584l-0.247-0.549c-0.016-0.035-0.032-0.077-0.044-0.12l-0.002-0.007-0.023 0.072-0.023 0.057-0.245 0.548zM34.708 18.516c0.039 0.002 0.078 0.002 0.116 0 0.033-0.003 0.067-0.008 0.099-0.016 0.036-0.007 0.065-0.016 0.094-0.026l-0.005 0.002c0.027-0.010 0.055-0.022 0.083-0.033v-0.303h-0.248c-0.001 0-0.002 0-0.003 0-0.005 0-0.011-0.001-0.016-0.002l0 0c-0.006-0.002-0.011-0.005-0.015-0.008l0 0c-0.004-0.003-0.007-0.006-0.009-0.011l-0-0c-0.002-0.004-0.003-0.008-0.003-0.012 0-0.001 0-0.001 0-0.002v0-0.104h0.48v0.517c-0.075 0.047-0.162 0.085-0.255 0.109l-0.007 0.001c-0.051 0.013-0.103 0.022-0.155 0.028-0.054 0.006-0.117 0.009-0.181 0.009-0 0-0 0-0 0v0c-0.002 0-0.005 0-0.007 0-0.109 0-0.214-0.019-0.311-0.053l0.007 0.002c-0.095-0.033-0.178-0.081-0.249-0.142l0.001 0.001c-0.066-0.059-0.12-0.13-0.158-0.21l-0.002-0.004c-0.036-0.080-0.057-0.173-0.057-0.271 0-0.003 0-0.006 0-0.010v0c-0-0.003-0-0.005-0-0.008 0-0.099 0.020-0.193 0.057-0.278l-0.002 0.005c0.036-0.080 0.090-0.153 0.16-0.214s0.155-0.108 0.247-0.14c0.106-0.035 0.219-0.051 0.332-0.050 0.058 0 0.115 0.004 0.172 0.012 0.051 0.007 0.1 0.019 0.147 0.034 0.044 0.014 0.085 0.032 0.124 0.053s0.074 0.045 0.108 0.071l-0.059 0.084c-0.005 0.008-0.012 0.014-0.020 0.018l-0 0c-0.008 0.004-0.018 0.007-0.028 0.007h-0c-0.014-0-0.028-0.004-0.039-0.011l0 0c-0.025-0.012-0.045-0.022-0.064-0.034l0.004 0.002c-0.023-0.013-0.051-0.025-0.079-0.035l-0.004-0.001c-0.032-0.011-0.070-0.022-0.109-0.029l-0.005-0.001c-0.045-0.007-0.096-0.012-0.149-0.012-0.003 0-0.006 0-0.009 0h0c-0.002-0-0.005-0-0.007-0-0.083 0-0.162 0.014-0.237 0.039l0.005-0.002c-0.070 0.024-0.131 0.061-0.182 0.107l0-0c-0.052 0.048-0.091 0.105-0.115 0.167-0.026 0.067-0.042 0.144-0.042 0.225s0.015 0.158 0.043 0.229l-0.001-0.004c0.027 0.063 0.069 0.121 0.124 0.17 0.051 0.046 0.113 0.083 0.181 0.107 0.079 0.023 0.162 0.032 0.245 0.027zM36.681 18.495h0.676v0.154h-0.883v-1.349h0.212l-0.005 1.195zM38.061 18.649h-0.212v-1.349h0.212v1.349zM38.848 17.306c0.012 0.006 0.023 0.015 0.032 0.025l0.905 1.017c-0.001-0.007-0.001-0.016-0.001-0.024s0-0.017 0.001-0.025l-0 0.001v-1.005h0.184v1.355h-0.107c-0.002 0-0.004 0-0.007 0-0.014 0-0.028-0.003-0.040-0.008l0.001 0c-0.013-0.007-0.024-0.015-0.033-0.025l-0-0-0.904-1.016v1.049h-0.177v-1.349h0.11c0.012 0 0.024 0.002 0.035 0.006zM41.529 17.3v0.148h-0.751v0.445h0.608v0.143h-0.608v0.46h0.751v0.148h-0.968v-1.346h0.968zM19.344 8.967l9.401 2.303v8.071l-9.401-2.302v-8.073zM18.741 8.279v9.152l10.605 2.599v-9.151l-10.605-2.6z"></path>
<path fill="#8e8f99" style="fill: var(--color4, #8e8f99)" d="M24.425 24.279l-10.607-2.601v-9.151l10.607 2.6v9.153z"></path>
<path fill="#8e8f99" style="fill: var(--color4, #8e8f99)" d="M18.916 8.863l9.278 2.274-3.945 3.406-9.28-2.276 3.947-3.404zM18.741 8.279l-4.923 4.247 10.607 2.6 4.921-4.247-10.605-2.6zM25.022 23.764l4.324-3.732-4.325-1.061v4.793z"></path>
</symbol>
</defs>
</svg>
